<?xml version="1.0" encoding="UTF-8"?> <!-- Generator: Adobe Illustrator 26.0.2, SVG Export Plug-In . SVG Version: 6.00 Build 0) --> <svg xmlns="http://www.w3.org/2000/svg" xmlns:xlink="http://www.w3.org/1999/xlink" version="1.1" x="0px" y="0px" viewBox="0 0 1220.4 1493.7" style="enable-background:new 0 0 1220.4 1493.7;" xml:space="preserve"> <style type="text/css"> .st0{display:none;} .st1{fill:none;stroke:#F6F2CC;stroke-width:4.7866;stroke-miterlimit:10;} .st2{fill:#F1E896;} .st3{fill:none;stroke:#000000;stroke-miterlimit:10;} .st4{fill:none;stroke:#000000;stroke-width:0.2141;stroke-linecap:round;stroke-miterlimit:10;} .st5{fill:none;stroke:#000000;stroke-width:0.2211;stroke-linecap:round;stroke-miterlimit:10;} .st6{fill:none;stroke:#000000;stroke-linecap:round;stroke-miterlimit:10;} .st7{fill:none;stroke:#000000;stroke-width:0.5;stroke-miterlimit:10;} .st8{fill:none;stroke:#FFFFFF;stroke-width:0.25;stroke-miterlimit:10;} .st9{fill:none;stroke:#000000;stroke-width:0.201;stroke-miterlimit:10;} .st10{stroke:#000000;stroke-width:0.2141;stroke-linejoin:round;stroke-miterlimit:10;} .st11{stroke:#FFFFFF;stroke-width:0.25;stroke-miterlimit:10;} .st12{fill:none;stroke:#000000;stroke-width:0.5;stroke-linecap:round;stroke-miterlimit:10;} .st13{fill:none;stroke:#000000;stroke-width:0.25;stroke-miterlimit:10;} .st14{fill:none;stroke:#000000;stroke-width:0.214;stroke-miterlimit:10;} .st15{fill:none;stroke:#000000;stroke-width:0.1835;stroke-miterlimit:10;} .st16{stroke:#000000;stroke-width:0.1716;stroke-linejoin:round;stroke-miterlimit:10;} .st17{fill:none;stroke:#000000;stroke-width:0.25;stroke-linecap:round;stroke-miterlimit:10;} .st18{fill:none;stroke:#000000;stroke-linecap:round;stroke-linejoin:round;stroke-miterlimit:10;} .st19{fill:#FFFFFF;} </style> <g id="Ebene_1" class="st0"> </g> <g id="Ebene_2"> <g> <path class="st1" d="M22.9,649.7h41.7V380.1H22.9v-20.2h154.7v20.2h-41.7v122.9h139.7V380.1h-41.7v-20.2h154.7v20.2h-41.7v269.6 h41.7v20.2H233.9v-20.2h41.7V525.9H135.9v123.8h41.7v20.2H22.9V649.7z"></path> </g> <g> <path class="st1" d="M691.5,502.7h197.9v64h-63.2c-3,61-17.3,118.9-52.7,164.8c12.8,13.5,24.1,20.3,42.9,20.3 c45.9,0,64-39.9,64-39.9l32.4,64.7c0,0-26.3,50.4-103.9,50.4c-27.1,0-65.5-6-100.8-33.9c-21.1,15.1-58.7,33.9-120.4,33.9 c-103.1,0-170.1-56.4-170.1-146.8c0-61.7,31.6-106.9,89.6-141.5c-22.6-34.6-35.4-64.7-35.4-100.8c0-70.7,50.4-129.4,146-129.4 c83.5,0,158.8,44.4,144.5,115.9l-94.1,14.3c6.8-43.6-21.1-57.9-48.9-57.9c-35.4,0-49.7,23.3-49.7,51.9 c0,36.9,23.3,67.7,64.7,121.2l88.8,114.4c12.8-24.8,21.1-55.7,23.3-101.6h-54.9V502.7z M656.8,734.5L553.7,601.3 c-27.8,18.8-39.9,43.6-39.9,70.7c0,41.4,27.8,78.3,84.3,78.3C625.2,750.3,645.6,742.1,656.8,734.5z"></path> </g> <g> <path class="st2" d="M226.5,1068.4c-8.1,0-14.6,6.5-14.6,14.6c0,8,6.5,14.6,14.6,14.6c8,0,14.6-6.5,14.6-14.6 C241.1,1075,234.6,1068.4,226.5,1068.4z"></path> <g> <path class="st2" d="M226.8,1252.2c-93.1,0-168.8-75.7-168.8-168.8c0-67.2,39.5-125.1,96.5-152.3l-5.3-15.3 c-63.2,29.4-107.2,93.4-107.2,167.6c0,102,82.9,184.9,184.9,184.9c95.4,0,174.1-72.6,183.9-165.5h-16.2 C384.7,1186.7,313.3,1252.2,226.8,1252.2z"></path> </g> <g> <path class="st2" d="M586.3,826.5H481.6c-12.3,0-15.4-32.8,0-32.8c15.4,0,90.5,10,103.1,11.7C597.3,807,600.2,825.7,586.3,826.5z "></path> </g> <g> <path class="st2" d="M471.3,1008.8c-0.8,0-1.6-0.5-1.9-1.4l-73.2-212.7c-15.3-44.6-57.3-74.6-104.5-74.6H171.3c-1.1,0-2-0.9-2-2 s0.9-2,2-2h120.5c48.9,0,92.4,31.1,108.3,77.3l73.2,212.7c0.4,1.1-0.2,2.2-1.2,2.6C471.7,1008.8,471.5,1008.8,471.3,1008.8z"></path> </g> <path class="st2" d="M354.5,801.8c-6.4-18.7-24-31.4-43.8-31.4h-36.5c-30.9,0-58.9,14.4-76.9,39.5c-18,25.1-22.5,56.3-12.5,85.5 l45.7,133.3c4.2,12.2,15.6,20.4,28.5,20.4c0,0,0,0,0,0l159.7-0.2c4.6,0,8.8-2.2,11.4-5.9c2.7-3.7,3.3-8.4,1.9-12.7L354.5,801.8z"></path> <path class="st2" d="M1008.2,1097.6c8,0,14.6-6.5,14.6-14.6c0-8.1-6.5-14.6-14.6-14.6c-8.1,0-14.6,6.5-14.6,14.6 C993.6,1091.1,1000.1,1097.6,1008.2,1097.6z"></path> <path class="st2" d="M1008.9,898.5c-17,0-33.3,2.5-49,6.8c-17.6-53.3-34.6-103.3-42.5-122.4c-3.6-8.7-17.1-37.1-39.6-37.1 c-17.1,0-23.3,14.5-27.4,24.1c-1.3,3-3.5,8.1-3.5,8.1s-21.2-3.6-30.2-5.9c-4.4-1.1-8.7,1.5-9.8,5.8c-1.1,4.3,1.5,8.7,5.8,9.8 c4.2,1.1,25.5,6.4,34.1,6.4c10.6,0,14.9-9.9,18.3-17.8c4.2-9.8,6.8-14.4,12.7-14.4c9.2,0,19.3,14.1,24.7,27.2 c2.8,6.7,6.8,17.7,11.6,31.3l-41.6,41.3c-65,64.5-181.9,180.5-193.7,192.4c-0.7,0.7-14.1,15.1-41,19.8c-1.2-3.6-2.9-7-5.2-10 l12.1-12.1h7.5c0.4,0,0.7-0.1,1-0.3l5.8-4.1c0.6-0.4,0.9-1.2,0.6-1.9c-0.2-0.7-0.9-1.2-1.6-1.2h-27.9c-0.4,0-0.7,0.1-1,0.3 l-5.8,4.1c-0.6,0.4-0.9,1.2-0.6,1.9c0.2,0.7,0.9,1.2,1.6,1.2h9l-6.4,6.4c-5.4-4.2-12.2-6.9-19.6-6.9c-0.8,0-1.5,0.2-2.3,0.2 c-24.8-72.3-60.2-175.1-61.1-178c-2.6-9.1-6.4-26.9-6.4-37.8h-16.1c0,13.1,4.3,32.9,7,42.3c0.4,1.5,37.6,109.8,61.3,178.5 c-6.6,4.3-11.4,11-13.5,18.8h-37.5c-16.9-0.5-32.8-5.6-46.7-13.9l-5.7-16.6c-0.4-1.1-1.5-1.6-2.6-1.2c-1.1,0.4-1.6,1.5-1.2,2.6 l4.1,11.9c-16.5-11.4-29.5-27.8-36.3-47.7l-71-207.2c-13.3-39.1-50-65.4-91.3-65.4H113.6c-2.8-7.9-4.9-13.7-6.2-17.5h28.9 c1.1,0,2-0.9,2-2s-0.9-2-2-2H106c-0.1-0.2-0.2-0.6-0.2-0.7c-1.5-4.2-6.1-6.3-10.3-4.9c-4.2,1.5-6.4,6.1-4.9,10.3 c0.8,2.2,68.7,192.5,97.4,274.4l18.1,53.1l-59.5-91.3c-0.5-0.8-1.6-1-2.4-0.5c-0.8,0.5-1,1.6-0.5,2.4l66.9,102.6l0.8,2.5 c-0.6,0.5-1.1,1.1-1.6,1.7l-93.1-83.6c-0.7-0.6-1.8-0.5-2.4,0.1c-0.6,0.7-0.6,1.8,0.1,2.4l93.1,83.5c-0.6,0.8-1.1,1.7-1.6,2.5 l-111.6-56.6c-0.8-0.4-1.9-0.1-2.3,0.8c-0.4,0.8-0.1,1.9,0.8,2.3l111.6,56.6c-0.4,0.9-0.7,1.8-1,2.8l-122.4-25.8 c-1.1-0.3-1.9,0.4-2,1.3c-0.2,0.9,0.4,1.9,1.3,2l122.5,25.8c-0.1,1-0.3,1.9-0.3,3l-124.9,6.8c-0.9,0-1.7,0.8-1.6,1.8 c0,0.9,0.8,1.6,1.7,1.6c0,0,0.1,0,0.1,0l124.9-6.8c0.1,1,0.3,2,0.5,3l-118.9,38.9c-0.9,0.3-1.4,1.3-1.1,2.2 c0.2,0.7,0.9,1.2,1.6,1.2c0.2,0,0.4,0,0.5-0.1l118.8-38.9c0.4,0.9,0.9,1.8,1.3,2.7l-104.8,68.3c-0.8,0.5-1,1.6-0.5,2.4 c0.3,0.5,0.9,0.8,1.4,0.8c0.3,0,0.6-0.1,0.9-0.3l104.7-68.3c0.6,0.8,1.2,1.6,1.9,2.3l-83.4,93c-0.6,0.7-0.6,1.8,0.1,2.4 c0.3,0.3,0.7,0.4,1.1,0.4c0.5,0,0.9-0.2,1.3-0.6l83.4-93c0.8,0.6,1.6,1.2,2.4,1.8L157.6,1216c-0.4,0.8-0.1,1.9,0.8,2.3 c0.3,0.1,0.5,0.2,0.8,0.2c0.6,0,1.2-0.3,1.5-0.9l56.4-111.3c0.9,0.4,1.9,0.7,2.9,1l-25.7,122.1c-0.2,0.9,0.4,1.9,1.3,2 c0.1,0,0.3,0,0.4,0c0.8,0,1.5-0.6,1.7-1.4l25.7-122.1c1,0.2,2,0.3,3.1,0.3l6.8,124.5c0,0.9,0.8,1.6,1.7,1.6c0,0,0.1,0,0.1,0 c0.9,0,1.7-0.8,1.6-1.8l-6.8-124.6c1-0.1,2-0.3,3-0.5l38.8,118.6c0.2,0.7,0.9,1.2,1.6,1.2c0.2,0,0.4,0,0.5-0.1 c0.9-0.3,1.4-1.3,1.1-2.2l-38.7-118.4c1-0.4,1.9-0.9,2.8-1.4l68.1,104.4c0.3,0.5,0.9,0.8,1.4,0.8c0.3,0,0.6-0.1,0.9-0.3 c0.8-0.5,1-1.6,0.5-2.4L242,1103.5c0.8-0.6,1.5-1.5,2.2-2.2l92.8,83.2c0.3,0.3,0.7,0.4,1.1,0.4c0.5,0,0.9-0.2,1.3-0.6 c0.6-0.7,0.6-1.8-0.1-2.4l-92.6-83.1c0.6-0.8,1.1-1.7,1.7-2.7l111.1,56.3c0.3,0.1,0.5,0.2,0.8,0.2c0.6,0,1.2-0.3,1.5-0.9 c0.4-0.8,0.1-1.9-0.8-2.3l-111-56.3c0.2-0.6,0.6-1,0.8-1.6l6.4,0l115.6,24.3c0.1,0,0.3,0,0.4,0c0.8,0,1.5-0.6,1.7-1.4 c0.2-0.9-0.4-1.9-1.3-2l-100-21.1l21.6-0.1c0.2,0,0.4,0,0.6,0h280.7c1.1,4.3,3.1,8.2,5.7,11.6l-12.3,12.3h-8.2 c-0.4,0-0.7,0.1-1,0.3l-5.8,4.1c-0.6,0.4-0.9,1.2-0.6,1.9c0.2,0.7,0.9,1.2,1.6,1.2h27.9c0.4,0,0.7-0.1,1-0.3l5.8-4.1 c0.6-0.4,0.9-1.2,0.6-1.9c-0.2-0.7-0.9-1.2-1.6-1.2h-8.3l6.6-6.6c5.4,4.2,12.2,6.9,19.6,6.9c15.5,0,28.5-11,31.5-25.6 c34.1-5.4,51.3-24.4,51.8-25c11.5-11.5,128.3-127.4,193.4-192l36.1-35.8c7.3,21.3,15.9,46.8,24.5,73.1 C874.3,936.4,824,1004,824,1083.4c0,102,82.9,184.9,184.9,184.9s184.9-82.9,184.9-184.9S1110.9,898.5,1008.9,898.5z M226.5,1099.2 c-8.9,0-16.2-7.3-16.2-16.2c0-8.9,7.3-16.2,16.2-16.2c8.9,0,16.2,7.3,16.2,16.2C242.7,1092,235.4,1099.2,226.5,1099.2z M255.8,1083.5l0.7,0c0,0,0.1,0,0.1,0L255.8,1083.5z M433.5,1045.4c-3.4,4.8-8.8,7.6-14.7,7.6l-159.7,0.2c0,0,0,0,0,0 c-14.6,0-27.6-9.3-32.3-23.1l-45.7-133.3c-10.4-30.5-5.7-63,13-89.2c18.7-26.2,47.9-41.2,80.1-41.2h36.5 c21.5,0,40.6,13.7,47.6,34.1l77.6,228.6C437.8,1034.7,436.9,1040.6,433.5,1045.4z M630.4,1066c1.9,2.5,3.3,5.3,4.3,8.3 c-4.2,0.6-8.7,0.9-13.6,0.9L630.4,1066z M607.4,1054.5c6.5,0,12.5,2.3,17.3,5.9l-12.3,12.3c-2-5.7-4-11.8-6.2-18.1 C606.6,1054.6,607,1054.5,607.4,1054.5z M591,1059.6c1.9,5.5,3.7,10.8,5.4,15.7h-16.6C581.6,1068.9,585.6,1063.4,591,1059.6z M584.4,1100.7c-2.1-2.8-3.6-5.9-4.6-9.3h13.9L584.4,1100.7z M607.4,1112.3c-6.5,0-12.5-2.3-17.3-5.9l15-15h15.6 c5.2,0,10.1-0.4,14.7-1C632.2,1102.9,620.9,1112.3,607.4,1112.3z M1008.9,1252.2c-93.1,0-168.8-75.7-168.8-168.8 c0-72.2,45.7-133.8,109.6-157.9c16,48.6,31.8,97.9,41,126.6L926.1,953c-0.5-0.8-1.6-1.1-2.5-0.5c-0.8,0.5-1.1,1.6-0.5,2.5 l70.2,107.6c-0.9,0.6-1.7,1.4-2.5,2.1l-95.6-85.8c-0.7-0.7-1.9-0.6-2.5,0.1c-0.7,0.7-0.6,1.9,0.1,2.5l95.6,85.7 c-0.7,0.8-1.3,1.7-1.9,2.7l-114.4-58c-0.8-0.4-1.9-0.1-2.4,0.8c-0.4,0.9-0.1,1.9,0.8,2.4l114.4,58c-0.4,1-0.9,2-1.2,3.1 l-125.4-26.4c-1-0.1-1.9,0.4-2.1,1.4c-0.2,1,0.4,1.9,1.4,2.1l125.5,26.4c-0.2,1.1-0.4,2.2-0.4,3.3l-127.9,6.9 c-1,0-1.7,0.9-1.7,1.9c0,0.9,0.8,1.7,1.8,1.7c0,0,0.1,0,0.1,0l128-6.9c0.1,1.1,0.3,2.2,0.6,3.3l-121.8,39.8 c-0.9,0.3-1.4,1.3-1.1,2.2c0.3,0.8,0.9,1.2,1.7,1.2c0.2,0,0.4,0,0.5-0.1l121.8-39.8c0.4,1,1,2,1.6,2.9l-107.5,70.1 c-0.8,0.5-1.1,1.6-0.5,2.5c0.3,0.5,0.9,0.8,1.5,0.8c0.3,0,0.7-0.1,1-0.3l107.5-70.1c0.7,0.9,1.3,1.7,2.1,2.5l-85.7,95.5 c-0.7,0.7-0.6,1.9,0.1,2.5c0.3,0.3,0.8,0.5,1.2,0.5c0.5,0,1-0.2,1.3-0.6l85.8-95.6c0.9,0.6,1.8,1.2,2.7,1.7l-58.2,114.7 c-0.4,0.9-0.1,1.9,0.8,2.4c0.3,0.1,0.5,0.2,0.8,0.2c0.6,0,1.3-0.3,1.6-1l58.2-114.7c1,0.4,2,0.7,3.1,0.9l-26.5,126 c-0.2,1,0.4,1.9,1.4,2.1c0.1,0,0.2,0,0.4,0c0.8,0,1.6-0.6,1.7-1.4l26.6-126.1c0.9,0.1,1.8,0.3,2.8,0.3c0.1,0,0.2,0,0.4,0l7,128.7 c0,0.9,0.8,1.7,1.8,1.7c0,0,0.1,0,0.1,0c1,0,1.7-0.9,1.7-1.9l-7-128.9c1-0.2,2-0.4,3-0.7l40.1,122.8c0.3,0.8,0.9,1.2,1.7,1.2 c0.2,0,0.4,0,0.5-0.1c0.9-0.3,1.4-1.3,1.1-2.2l-40.1-122.8c0.9-0.4,1.8-0.9,2.7-1.5l70.6,108.3c0.3,0.5,0.9,0.8,1.5,0.8 c0.3,0,0.7-0.1,1-0.3c0.8-0.5,1.1-1.6,0.5-2.5l-70.7-108.4c0.8-0.6,1.6-1.2,2.3-1.9l96.3,86.4c0.3,0.3,0.8,0.5,1.2,0.5 c0.5,0,1-0.2,1.3-0.6c0.7-0.7,0.6-1.9-0.1-2.5l-96.4-86.5c0.6-0.8,1.1-1.6,1.6-2.5l115.6,58.6c0.3,0.1,0.5,0.2,0.8,0.2 c0.6,0,1.3-0.3,1.6-1c0.4-0.9,0.1-1.9-0.8-2.4l-115.6-58.6c0.4-0.9,0.6-1.9,0.9-2.8l126.9,26.7c0.1,0,0.2,0,0.4,0 c0.8,0,1.6-0.6,1.7-1.4c0.2-1-0.4-1.9-1.4-2.1l-126.9-26.7c0.1-1,0.3-1.9,0.3-2.9l129.5-7c1,0,1.7-0.9,1.7-1.9 c0-1-0.9-1.6-1.9-1.7l-129.5,7c-0.1-1-0.3-1.9-0.5-2.9l123.3-40.3c0.9-0.3,1.4-1.3,1.1-2.2c-0.3-0.9-1.3-1.4-2.2-1.1l-123.2,40.3 c-0.4-0.9-0.9-1.8-1.3-2.6l108.6-70.8c0.8-0.5,1.1-1.6,0.5-2.5c-0.5-0.8-1.6-1-2.5-0.5l-108.5,70.8c-0.6-0.8-1.2-1.6-1.9-2.3 l86.5-96.4c0.7-0.7,0.6-1.9-0.1-2.5c-0.7-0.7-1.9-0.6-2.5,0.1l-86.5,96.4c-0.8-0.6-1.6-1.2-2.4-1.7l58.5-115.4 c0.4-0.9,0.1-1.9-0.8-2.4c-0.8-0.4-1.9-0.1-2.4,0.8l-58.5,115.3c-0.9-0.4-1.9-0.7-2.9-1l26.6-126.5c0.2-1-0.4-1.9-1.4-2.1 c-0.9-0.1-1.9,0.4-2.1,1.4l-26.6,126.4c-1-0.2-2-0.4-3-0.4c0-0.1-0.1-0.2-0.1-0.3l-7-128.5c0-1-0.9-1.6-1.9-1.7 c-1,0-1.7,0.9-1.7,1.9l6.2,114.9c-9.3-29.2-24.6-76.6-40-123.6c14-3.8,28.7-6,43.9-6c93.1,0,168.8,75.7,168.8,168.8 S1102,1252.2,1008.9,1252.2z M1008.2,1066.8c8.9,0,16.2,7.3,16.2,16.2c0,8.9-7.3,16.2-16.2,16.2S992,1092,992,1083 C992,1074.1,999.2,1066.8,1008.2,1066.8z"></path> </g> <g> <path class="st1" d="M905.7,649.7h41.7V380.1h-41.7v-20.2h145.4c91,0,117.7,33.8,117.7,76c0,30.9-16.9,59.5-70.8,72.2v0.9 c60.5,9.8,83.5,36.1,83.5,74.6c0,49.2-28.6,86.3-125.2,86.3H905.7V649.7z M1044.1,499.2c37,0,51.6-16.4,51.6-58.6 c0-40.8-13.1-59.5-50.6-59.5h-26.3v118.2H1044.1z M1048.7,648.3c41.3,0,59.1-16.4,59.1-63.3c0-46.4-18.3-62.8-60-62.8h-29.1v126.1 H1048.7z"></path> </g> </g> <g id="Ebene_3"> </g> </svg> 