<?xml version="1.0" encoding="UTF-8"?> <!-- Generator: Adobe Illustrator 25.4.1, SVG Export Plug-In . SVG Version: 6.00 Build 0) --> <svg xmlns="http://www.w3.org/2000/svg" xmlns:xlink="http://www.w3.org/1999/xlink" version="1.1" id="Ebene_1" x="0px" y="0px" viewBox="0 0 1704 146" style="enable-background:new 0 0 1704 146;" xml:space="preserve"> <style type="text/css"> .st0{fill:none;} .st1{fill:#F1E896;} .st2{fill:#F6F2CC;stroke:#F6F2CC;} .st3{fill:none;stroke:#F1E896;stroke-dasharray:150,100;} </style> <path class="st1" d="M1356.68,137.41c-136.63-5.14-276.24-21.27-414.94-47.95C606.52,25,384.88-10.38,39.47,51.46v0 c345.4-61.84,567.05-26.47,902.27,38C1080.44,116.14,1220.05,132.27,1356.68,137.41c32.06,1.21,63.93,1.81,95.6,1.81v0c0,0,0,0,0,0 C1420.61,139.22,1388.74,138.62,1356.68,137.41z"></path> <path class="st1" d="M944.39,75.72C729.95,34.48,563.91,5.29,379.46,5.29c-107.43,0-217.62,10.17-339.98,31.94v14.23 c345.4-61.84,567.05-26.47,902.27,38c138.7,26.67,278.31,42.8,414.94,47.95c32.06,1.21,63.93,1.81,95.6,1.81c0,0,0,0,0,0v-14 c-31.38,0-63.37-0.61-95.07-1.8C1221.28,118.31,1082.39,102.26,944.39,75.72z"></path> </svg> 