<?xml version="1.0" encoding="UTF-8"?> <!-- Generator: Adobe Illustrator 25.4.1, SVG Export Plug-In . SVG Version: 6.00 Build 0) --> <svg xmlns="http://www.w3.org/2000/svg" xmlns:xlink="http://www.w3.org/1999/xlink" version="1.1" id="Ebene_1" x="0px" y="0px" viewBox="0 0 1704 189" style="enable-background:new 0 0 1704 189;" xml:space="preserve"> <style type="text/css"> .st0{fill:none;} .st1{fill:#F1E896;} .st2{fill:#F6F2CC;stroke:#F6F2CC;} .st3{fill:none;stroke:#F1E896;stroke-dasharray:150,100;} </style> <g> <path class="st0" d="M389.62,46.13C261.69,45.58,134.11,54.21,0.47,72.44v0C134.11,54.21,261.69,45.59,389.62,46.13z"></path> <path class="st0" d="M1395.54,165.22c-3.71-0.14-7.41-0.27-11.13-0.44C1388.13,164.95,1391.84,165.09,1395.54,165.22z"></path> <path class="st1" d="M395.17,46.15c-1.85-0.01-3.7-0.01-5.55-0.02C391.47,46.14,393.32,46.14,395.17,46.15 c263.66,1.65,498.31,42.72,735.41,88.31c86.11,16.56,171.48,26.7,253.83,30.33c-82.35-3.62-167.72-13.77-253.83-30.33 C893.49,88.87,658.83,47.8,395.17,46.15z"></path> <path class="st1" d="M1399.82,165.39c-1.42-0.05-2.85-0.11-4.28-0.17C1396.97,165.28,1398.4,165.34,1399.82,165.39z"></path> <path class="st0" d="M1130.58,134.46c86.11,16.56,171.48,26.7,253.83,30.33C1302.07,161.16,1216.69,151.02,1130.58,134.46 C893.49,88.87,658.83,47.8,395.17,46.15c-1.85-0.01-3.7-0.01-5.55-0.02c1.85,0.01,3.7,0.01,5.54,0.02 C658.83,47.8,893.49,88.87,1130.58,134.46z"></path> <path class="st0" d="M1130.59,134.46c86.11,16.56,171.48,26.7,253.83,30.33c3.72,0.16,7.42,0.3,11.13,0.44 c1.42,0.05,2.86,0.12,4.28,0.17c76.84,2.63,150.9-0.47,220.29-9.38c31.63-4.07,59.66-9,84.36-14.36v-24.11 c-6.63,0.94-13.29,1.84-19.99,2.7c-74.35,9.56-152.01,14.31-231.71,14.31c-135.28,0-276.47-13.69-417.56-40.82 C798.37,48.18,600.21,13.91,379.47,13.91c-116.94,0-240.23,9.62-379,32.26v26.27c133.64-18.23,261.22-26.86,389.15-26.31 c1.85,0.01,3.7,0.01,5.55,0.02C658.83,47.8,893.49,88.87,1130.59,134.46z"></path> <path class="st0" d="M1620.11,156.01c-69.39,8.92-143.45,12.02-220.29,9.38C1476.66,168.02,1550.72,164.92,1620.11,156.01 c31.64-4.07,59.66-9,84.36-14.36v0C1679.77,147.01,1651.75,151.94,1620.11,156.01z"></path> <path class="st1" d="M1620.12,156.01c-69.39,8.92-143.45,12.02-220.3,9.38c-1.42-0.05-2.85-0.11-4.28-0.17 c-3.71-0.14-7.41-0.27-11.13-0.44c-82.35-3.62-167.72-13.77-253.83-30.33C893.49,88.87,658.83,47.8,395.17,46.15 c-1.85-0.01-3.7-0.01-5.54-0.02C261.69,45.59,134.11,54.21,0.47,72.44v14.13c135.8-18.61,264.91-27.23,394.61-26.42 c262.47,1.64,496.43,42.59,732.86,88.06c110.71,21.29,219.81,32.09,324.27,32.09c58.87,0,115.96-3.5,169.69-10.4 c30.74-3.95,58.19-8.74,82.57-13.96v-14.29C1679.78,147.01,1651.75,151.94,1620.12,156.01z"></path> <path class="st2" d="M1035.22,93.73c141.08,27.13,282.28,40.82,417.56,40.82c79.7,0,157.36-4.75,231.71-14.31 c6.7-0.86,13.36-1.77,19.99-2.7v-10.48c-201.23,28.38-433.47,21.82-667.36-23.15C815.45,41.28,613.92,5.89,392.07,4.5 C279.96,3.8,167.52,11.78,48.29,28.92c-15.8,2.27-31.74,4.71-47.82,7.3v9.95c138.76-22.65,262.05-32.26,379-32.26 C600.21,13.91,798.37,48.18,1035.22,93.73z"></path> </g> </svg> 