<?xml version="1.0" encoding="UTF-8"?> <!-- Generator: Adobe Illustrator 25.2.1, SVG Export Plug-In . SVG Version: 6.00 Build 0) --> <svg xmlns="http://www.w3.org/2000/svg" xmlns:xlink="http://www.w3.org/1999/xlink" version="1.1" id="Ebene_1" x="0px" y="0px" viewBox="0 0 1700.79 425.2" style="enable-background:new 0 0 1700.79 425.2;" xml:space="preserve"> <g> <g> <path d="M326.23,367.23c0.53-3.62,0.74-7.33,1.67-10.85c1.87-7.09,4.13-14.08,6.21-21.11c0.8-2.71,3.02-4.99,1.31-8.41 c-0.62-1.25,1.25-3.63,1.71-5.56c0.61-2.56,1.18-5.16,1.32-7.77c0.05-1.06-1.08-2.17-1.9-3.67c4.54-2.18,4.76-6.7,6.04-10.83 c2.79-8.99,5.89-17.89,8.98-26.79c1.47-4.25,2.93-8.55,4.9-12.57c3.65-7.47,7.63-14.79,11.56-22.11c1.63-3.03,3.77-5.81,5.2-8.92 c3.18-6.89,1.62-11.84-4.86-15.81c-2.26-1.39-4.82-2.3-7.23-3.43c-1.44-0.67-2.87-1.35-4.31-2.02c0.1-0.4,0.2-0.79,0.31-1.19 c1.84,0.32,3.67,0.67,5.51,0.94c3.3,0.48,6.59,1.03,9.91,1.3c2.77,0.22,4.35-1.2,4.38-4.28c-7.94,2.8-14.9-0.92-22.09-3.06 c-2.55-0.76-3.26-2.67-2.75-5.12c0.75-3.58,1.54-7.16,2.37-11.01c6.78-0.97,13.21-0.9,19.62,0.52c0.16,0.04,0.39,0.01,0.48,0.11 c4.31,4.9,10.49,1.73,15.59,3.56c3.04,1.09,3.57,0.16,4.11-4.21c-6.77,1.89-11.96-1.97-17.42-4.78c-0.49-0.25-1.1-1.18-0.97-1.59 c1.17-3.97,2.43-7.91,3.84-11.8c0.18-0.5,1.47-1.04,2.08-0.88c4.37,1.1,8.73,2.26,13.01,3.68c1.12,0.37,1.91,1.72,2.19,1.99 c2.89,0.44,5.13,0.54,7.21,1.16c2.97,0.89,5.64,1.44,8.48-0.63c2.69-1.95,5.78-2.21,9.07-1.02c7.07,2.55,14.22,4.91,21.34,7.31 c1.41,0.47,2.87,0.76,4.87,1.27c-3.08-10.86-10.5-15.75-19.76-17.25c-15.41-2.49-22.48-12.77-26.26-26.29 c-4.45-15.92-8.39-31.99-12.53-48c-1.63-6.31-3.2-12.63-4.79-18.95c-1.48-5.84-1.48-5.84-7.64-5.43 c-2.19-4.54-2.85-9.66-3.54-14.7c-0.15-1.08,1.18-2.84,2.3-3.54c2.96-1.83,6.04-3.61,9.3-4.76c9.61-3.4,19.33-6.48,29-9.7 c0.78-0.26,1.53-0.6,2.95-1.15c-0.99-2.85-1.94-5.57-3.03-8.72c5.73-2.04,11.66-4.25,17.76-4.98c0.34,3.37,0.61,6.08,0.94,9.38 c5.84-1.08,11.03-2.2,16.28-2.98c8.4-1.24,16.86-2.17,25.26-3.42c2.76-0.41,4.21,0.82,4.93,3.1c1.39,4.41,2.57,8.89,3.86,13.42 c-1.36,0.75-2.18,1.32-3.08,1.68c-2.45,0.97-3.09,2.61-2.58,5.18c3.29,16.38,6.73,32.74,9.6,49.2c1.86,10.68,3.14,21.49,4.1,32.3 c0.75,8.43-3.7,15.06-9.14,21c-3.39,3.7-7.15,7.08-10.28,10.98c-1.78,2.23-2.88,5.12-3.81,7.88c-0.74,2.18-1.26,4.65-1.01,6.89 c0.71,6.51,0.7,13.24,4.01,19.19c0.59,1.05,1.95,1.89,3.14,2.34c4.58,1.75,8.7,4.64,14.14,4.21c2.59-0.21,5.58,1.28,7.93,2.73 c1.43,0.88,2.43,3.07,2.85,4.85c0.57,2.4,0.4,4.98,0.55,7.48c0.16,2.6,1.4,4.33,3.88,5.3c3.09,1.21,6.11,2.58,10.29,4.37 c-1.67,1.19-2.57,2.33-3.6,2.47c-2.64,0.34-5.33,0.25-8.01,0.31c-3.34,0.07-5.84,1.28-6.69,4.82c-0.16,0.64-0.48,1.25-0.74,1.86 c-2.67,6.39-8.01,9.3-14.29,6.65c-2.95-1.25-5.65-4.28-7.26-7.18c-1.79-3.21-4-5.24-7.29-6.33c-4.44-1.47-8.9-2.87-13.36-4.27 c-2.03-0.64-3.96-0.84-4.81-3.62c-0.47-1.55-4.63-1.26-1.92-5.74c-0.6,0.28-1.2,0.56-1.81,0.84c-0.33,0.73-0.93,1.44-0.96,2.19 c-0.46,9.02-0.84,18.04-1.24,27.06c-0.17,3.84-0.28,7.68-0.54,11.51c-0.37,5.52,1.6,9.77,6.39,12.7c0.9,0.55,1.52,1.54,3.05,3.15 c-2.44,0-4,0.43-5.17-0.07c-5.72-2.42-10.8-5.73-11.85-12.49c-0.77-4.94-1.16-9.95-1.46-14.94c-0.55-9.16-0.96-18.34-1.32-27.51 c-0.11-2.9-1.21-4.39-4.54-4.02c-0.44,1.15-0.98,2.34-1.35,3.59c-1.22,4.16-2.06,4.96-6.44,4.08c-9.31-1.88-15.59,2.57-20.23,9.76 c-4.38,6.8-6.94,14.46-8.5,22.4c-0.98,4.96,0.68,8.99,5.15,11.49c4.37,2.44,8.9,4.58,13.33,6.9c1.53,0.8,2.99,1.71,4.48,2.57 c-0.18,0.42-0.36,0.84-0.54,1.26c-2.28-0.62-4.6-1.16-6.85-1.89c-9.62-3.14-10.64-2.64-14.8,6.66 c-2.94,6.56-6.25,12.96-9.08,19.56c-1.7,3.96-2.72,8.21-4.19,12.28c-0.83,2.28-1.96,4.46-2.95,6.68c-0.18,0.4-0.51,0.88-0.41,1.21 c2.1,6.87-2.79,11.86-4.41,18.49c-4.55-1.1-8.64-2.09-13.19-3.2c1.39-6.9,2.62-13.03,3.91-19.43c-2.44-1.47-3.39-1.43-4.47,1.54 c-1.4,3.86-3.28,7.18-6.85,9.39c-0.38,0.23-0.61,0.78-0.8,1.23c-5.15,11.6-10.68,23.13-11.41,36.06 c-0.29,5.11-0.08,10.46,1.11,15.42c3.54,14.74,17.13,22.69,33.38,20.28c16.84-2.5,30.17-11.27,41.82-23.1 c7.7-7.82,13.73-16.83,18.73-26.56c13.39-26.07,23.8-53.41,34.19-80.76c2.49-6.55,4.94-13.1,7.47-19.81 c1.93,0.53,3.63,1,5.64,1.55c-0.33,1.17-0.51,2.28-0.94,3.3c-13.82,32.98-27.45,66.04-41.6,98.88 c-7.71,17.88-18.6,33.69-34.22,45.76c-11.09,8.58-23.34,14.3-37.74,14.32c-20.1,0.03-35.08-13.38-37.27-33.4 c-0.22-1.98-0.63-3.94-0.96-5.91C326.23,368.57,326.23,367.9,326.23,367.23z M465.61,42.37c4.55,30.35,11.62,59.85,14.92,89.95 c7.08,0.03,7.71-0.43,7.7-6.99c-0.01-3.66-0.29-7.36-0.91-10.97c-3.57-20.87-7.26-41.71-10.93-62.56 c-0.63-3.57-1.39-7.11-2.17-11.05C471.12,41.34,468.57,41.81,465.61,42.37z M415.37,145.7c-7.72-28.61-15.31-56.7-22.96-85.05 c-2.5,0.87-4.5,1.57-6.73,2.35c0.47,2.3,0.78,4.26,1.28,6.16c1.48,5.64,3.02,11.27,4.56,16.89c4.77,17.53,9.46,35.09,14.41,52.58 c0.87,3.06,2.8,5.83,4.27,8.81C412.4,146.7,413.79,146.24,415.37,145.7z M485.02,221.54c-6.01-4.31-11.76-8.02-17.02-12.33 c-6.66-5.44-14.26-8.52-22.49-10.35c-0.76-0.17-1.61,0.06-3.58,0.16c1.64,0.91,2.15,1.35,2.74,1.49 c12.68,3.06,22.07,10.66,29.18,21.3c2.15,3.22,5.1,5.11,9.19,6.48C483.72,225.98,484.36,223.8,485.02,221.54z M468.48,21.28 c0.95,5.42,1.86,10.58,2.86,16.25c3.06-0.5,5.74-0.93,8.88-1.44c-0.61-3.41-0.93-6.37-1.7-9.22 C476.66,20.01,476.26,19.84,468.48,21.28z M383.15,44.17c-6.62,1.65-7.35,2.51-6.52,8.27c0.46,3.22,1.38,6.38,2.2,10.09 c3.19-1.19,5.73-2.13,8.42-3.13C385.81,54.05,384.52,49.27,383.15,44.17z M369.58,287.1c0.32,0.1,0.64,0.21,0.96,0.31 c7.66-15.02,14.73-30.33,18.17-46.94c1.05-5.08,0.26-10.59-0.06-15.88c-0.11-1.81-1.35-3.56-2.07-5.34 c2.59,8.87,2.07,17.57-0.74,26.12c-2.92,8.87-6.09,17.66-9.43,26.37C374.41,276.97,371.87,281.99,369.58,287.1z"></path> <path d="M973.43,258.88c-1.33,0.92-2.54,1.75-3.75,2.58c-3.59,2.45-7.23,4.83-10.77,7.35c-5.72,4.06-11.56,3.88-17.4,0.46 c-4.49-2.63-9.32-3.44-14.42-3.48c-2.49-0.02-4.44,0.41-6.12,2.5c-2.08,2.6-4.93,3.97-8.4,3.55c-2.89-0.34-5.09-1.69-5.95-4.58 c-0.91-3.03,0.56-5.16,2.94-6.82c0.68-0.47,1.42-0.97,2.21-1.15c7.48-1.68,13.05-6.63,18.8-11.16 c5.52-4.35,10.72-9.09,16.11-13.61c1.26-1.06,2.72-1.88,4.09-2.8c-0.28-0.39-0.56-0.78-0.84-1.16c-6-1.86-11.97-3.78-18-5.54 c-1.74-0.51-2.95,0.35-3.05,2.28c-0.07,1.31-0.01,2.62-0.01,4.6c-2.69-0.56-5.04-1.05-7.49-1.56c-1.89-3.68-1.34-7.32-0.16-10.79 c1.13-3.32,3.89-5.43,7.34-4.93c4.9,0.7,9.7,2.16,14.53,3.35c3.39,0.83,6.72,1.93,10.14,2.55c2.54,0.46,4.55-0.23,6.17-2.92 c2.5-4.16,8.16-4.42,11.71-1.09c3.03,2.84,3.13,7.34-0.36,9.5c-7.81,4.82-13.24,12.21-20.18,17.94 c-5.13,4.23-10.01,8.77-14.96,13.13c3.24,1.13,6.39,2.07,9.42,3.31c4.89,2,9.66,1.68,13.84-1.32c4.6-3.31,8.94-7.03,13.05-10.93 c1.28-1.21,1.66-3.54,2.09-5.44c1.88-8.22,5.82-15.29,11.85-21.13c4.89-4.74,10.7-7.37,17.67-6.96c6.39,0.38,9.75,3.93,9.67,10.38 c-0.07,5.94-2.67,10.91-7.36,14.18c-5.03,3.51-10.56,6.36-16.08,9.09c-5.55,2.74-5.66,2.52-4.95,6.39c0.99,5.36,3.44,8.25,8,7.97 c4.44-0.28,8.96-1.16,13.17-2.58c7.71-2.6,14.15-7.52,20.28-12.73c1.13-0.96,1.8-2.69,2.21-4.2c2.36-8.68,4.57-17.4,6.86-26.22 c4.3,0,7.92,0,11.85,0c-1.63,5.09-3.23,10.11-4.83,15.13c0.19,0.18,0.39,0.37,0.58,0.55c1.05-0.81,2.1-1.62,3.14-2.43 c4.75-3.69,9.32-7.65,14.31-10.97c3.3-2.2,7.28-4.01,11.31-1.63c4.42,2.61,5.68,7.17,5.05,11.78c-0.71,5.26-2.44,10.38-3.7,15.56 c-0.91,3.72-1.95,7.42-2.61,11.19c-0.29,1.68,0.2,3.49,0.37,5.73c1.75-0.41,3.02-0.36,3.84-0.95c5.27-3.8,10.48-7.69,15.61-11.69 c0.81-0.64,1.31-1.92,1.56-3c1.52-6.5,2.93-13.03,4.47-19.93c-0.94-0.11-1.98-0.24-3.05-0.37c-0.91-5.61-0.91-5.61,6.05-7.84 c3.22-9.62,6.5-19.42,9.88-29.52c3.65,0,7.24,0,11.46,0c-3.1,9.65-6.13,19.07-9.34,29.03c4.36,0,8.15,0,12.4,0 c-0.54,2.85-1,5.22-1.53,8.01c-4.67,0-9.12,0-13.85,0c-2.57,9.22-4.94,18.04-4.52,27.36c0.05,1.16,0.23,2.33,0.46,3.47 c1.19,5.75,2.79,6.48,7.86,3.64c0.58-0.33,1.18-0.65,1.71-1.05c12.47-9.23,23.17-20.2,32.06-32.92c1.8-2.58,3.02-5.2,1.15-8.33 c-0.39-0.66-0.33-1.63-0.33-2.46c-0.05-8.44,1.61-9.36,9.98-8.51c2.39,0.24,3.61,1.75,3.34,4.14c-0.31,2.64-0.85,5.25-1.39,8.46 c1.71,0.71,3.67,1.49,5.6,2.34c7.15,3.13,10.04,7.68,8.97,15.49c-0.63,4.59-2.22,9.06-3.44,13.56c-0.66,2.42-1.6,4.76-2.14,7.2 c-0.72,3.23,0.66,4.46,3.78,3.33c1.86-0.68,3.6-1.76,5.29-2.81c1.41-0.88,2.69-1.99,4.02-3c6.29-4.72,10.91-10.11,12.02-18.6 c0.89-6.83,3.94-13.37,6-19.94c4.08,0,7.53,0,11.2,0c-2.16,7.64-4.54,14.95-6.24,22.41c-1.21,5.34-2,10.88-2.08,16.34 c-0.08,5.39,2.08,6.32,6.53,3.42c6.86-4.46,12.02-10.61,16.47-17.36c0.88-1.33,1.09-3.13,1.53-4.73 c1.81-6.59,3.58-13.18,5.43-19.98c3.8,0,7.23,0,11.21,0c-0.63,2.64-1.22,5.17-1.85,7.69c-2.09,8.43-4.3,16.83-6.23,25.29 c-0.55,2.4-0.58,5-0.39,7.48c0.23,3.1,1.58,3.93,4.36,2.57c2.67-1.31,5.1-3.15,7.58-4.83c0.96-0.65,1.73-1.59,2.67-2.27 c4.84-3.48,7.39-8.01,8.49-14.05c1.36-7.49,4.02-14.74,6.13-22.11c4.29,0,7.92,0,11.93,0c-1.64,5.21-3.21,10.22-4.78,15.22 c0.26,0.15,0.51,0.31,0.77,0.46c2.16-2.01,4.2-4.16,6.51-5.98c3.53-2.79,7-5.79,10.92-7.9c5.83-3.14,10.51-0.99,12.51,5.33 c0.8,2.52,1,5.22,1.58,8.46c1.63-1.23,3.1-2.44,4.67-3.51c4.01-2.71,7.84-5.81,12.14-7.92c6.98-3.42,13.4,0.39,13.85,8.19 c0.22,3.74-0.58,7.63-1.46,11.33c-1.11,4.7-2.87,9.25-4.14,13.92c-0.65,2.38-1.2,4.94,1.47,7.55c1.82-0.97,3.94-1.81,5.75-3.1 c8.85-6.31,15.62-14.57,21.56-23.56c1.57-2.37,2.92-4.88,4.36-7.33c5.6-9.53,4.81-19.94-2.24-28.49 c-4.33-5.26-9.84-9.03-15.84-12.11c-13.68-7.02-28.38-10.87-43.37-13.74c-22.4-4.29-45.06-6.41-67.83-7.12 c-33.16-1.04-66.17-3.65-98.88-9.29c-22.11-3.81-43.96-8.75-64.96-16.86c-5.76-2.22-11.48-4.67-16.95-7.52 c-44.23-23.01-90.89-38.14-140.54-43.67c-31.66-3.53-63.44-4.17-95.26-3.73c-37.32,0.52-74.64,1.09-111.97,1.48 c-26.3,0.27-52.51,1.66-78.68,4.31c-19.23,1.94-36.63,8.77-53.06,18.5c-13.74,8.14-26.43,17.8-37.75,28.97 c-6.11,6.03-11.15,13.36-15.64,20.74c-5.28,8.69-9.44,18.06-14.07,27.14c-0.82,1.62-1.59,3.26-2.48,5.1 c-2.35-0.95-4.44-1.8-6.86-2.77c7.3-16.95,14.21-33.65,25.3-48.11c3.12-4.07,7.06-7.57,10.92-11 c11.03-9.76,22.14-19.42,34.66-27.31c13.97-8.79,28.78-15.88,44.76-19.8c10.49-2.57,21.41-3.57,32.2-4.68 c31.52-3.24,63.17-2.91,94.8-3.22c31.63-0.31,63.26-1.29,94.89-1.47c35.84-0.2,71.59,1.38,106.93,8.16 c39.09,7.5,75.96,21.17,110.65,40.49c20.37,11.35,42.03,18.85,64.51,24.3c28.84,6.99,58.13,11.14,87.71,13.16 c17.53,1.2,35.1,1.74,52.63,2.97c26.41,1.85,52.66,5.04,77.73,14.1c7.95,2.87,15.68,6.75,22.85,11.24 c4.67,2.92,8.71,7.35,12.03,11.84c5.58,7.54,6.01,16.5,2.93,24.96c-6,16.53-16.13,30.36-30.14,41.1 c-3.12,2.39-6.82,4.32-10.56,5.55c-6.82,2.26-12.12-1.15-12.98-8.33c-0.42-3.56-0.01-7.36,0.78-10.89 c1.24-5.53,3.25-10.88,4.66-16.38c0.45-1.75,0.07-3.72,0.07-6.58c-2.51,1.39-4.34,2.11-5.83,3.28c-4.61,3.61-9.25,7.21-13.52,11.2 c-1.55,1.45-2.5,3.87-3.04,6.02c-1.75,6.94-3.18,13.95-4.76,21.07c-4.04,0-7.64,0-11.45,0c2.18-8.65,4.43-17.03,6.35-25.49 c0.88-3.89,1.37-7.92,1.52-11.91c0.13-3.43-1.57-4.47-4.39-2.55c-4.4,3.01-8.25,6.8-12.63,9.85c-5.93,4.13-8.33,9.38-7.37,16.62 c0.58,4.39,0.11,8.93,0.11,13.64c-3.72,0-6.84,0-10.39,0c-0.34-3.91-0.66-7.66-1.05-12.26c-2.03,1.56-3.54,2.71-5.04,3.87 c-4.92,3.8-9.98,7.34-16.13,8.91c-6.54,1.68-9.38-0.19-10.42-6.93c-0.41-2.64-0.69-5.29-2.11-8.94c-0.9,1.38-1.52,3.09-2.73,4.06 c-4.68,3.72-9.19,7.89-14.43,10.62c-7.91,4.12-12.25,1.47-13.8-7.28c-0.22-1.26-0.47-2.52-0.84-4.5c-2.05,1.54-3.5,2.88-5.17,3.83 c-5.35,3.04-10.53,6.59-16.23,8.75c-9.98,3.78-13.95-3.47-13.4-10.86c0.27-3.6,1.6-7.15,2.68-10.65 c1.09-3.51,2.74-6.85,3.66-10.39c1.54-5.96-0.27-9.16-6.39-11.96c-7.33,13.43-18.41,23.66-29.9,33.35 c-4.9,4.14-10.66,7.59-16.55,10.15c-7.81,3.4-12.66,0.67-15.58-7.37c-0.44-1.22-0.82-2.46-1.37-4.11 c-2.94,2.26-5.54,4.64-8.5,6.44c-3.68,2.24-7.47,4.58-11.54,5.83c-6.68,2.05-11.71-1.37-12.45-8.39c-0.41-3.89,0.05-8,0.89-11.85 c1.2-5.54,3.18-10.9,4.66-16.38c0.92-3.42,0.7-3.94-1.5-7.23c-1.8,1.08-3.81,1.94-5.41,3.3c-5.75,4.86-11.43,9.81-16.95,14.92 c-1.06,0.98-1.79,2.83-1.84,4.31c-0.19,6.68-0.08,13.37-0.08,20.51c-3.55,0-6.92,0-10.8,0c-0.29-3.79-0.6-7.72-0.96-12.39 c-1.67,0.94-3.04,1.65-4.35,2.46c-8.63,5.3-17.75,9.32-27.87,10.74c-1.82,0.25-3.66,0.46-5.49,0.51 c-7.96,0.21-11.64-2.15-14.84-9.39C974.47,261.34,974.03,260.27,973.43,258.88z M986.06,241.03c6.22-1.65,12.49-5.25,15.53-8.72 c2.54-2.89,3.34-6.02,1.97-7.63c-1.4-1.65-4.67-1.36-7.77,0.96C990.8,229.37,987.77,234.43,986.06,241.03z"></path> <path d="M880.21,219.23c2.16,0.9,4.15,1.69,6.11,2.57c6.68,2.99,9.58,7.41,8.7,14.71c-0.56,4.6-2.13,9.07-3.32,13.58 c-0.64,2.42-1.58,4.77-2.12,7.21c-0.26,1.18-0.29,3.31,0.27,3.59c1.12,0.55,2.93,0.54,4.09,0c2.83-1.33,5.46-3.1,8.16-4.69 c0.22,0.24,0.55,0.45,0.56,0.66c0.39,8.9,0.36,9.07-7.85,12.61c-2.43,1.05-5.05,1.87-7.66,2.21c-5,0.66-8.71-1.8-9.41-6.8 c-0.49-3.52-0.18-7.34,0.68-10.81c1.2-4.84,3.45-9.41,4.9-14.2c1.97-6.5,0.18-10.03-6.24-12.88 c-5.69,10.8-13.98,19.58-23.17,27.37c-11.84,10.03-25.57,16.34-41.28,17.36c-8.66,0.57-12.56-2.15-15.83-10.12 c-0.38-0.92-0.69-1.86-1.29-3.49c-1.48,1.14-2.64,2.24-4,3.02c-5.77,3.31-11.34,7.16-17.46,9.6c-7.32,2.92-10.39,0.74-12.2-6.93 c-0.23-0.96-0.49-1.91-0.86-3.32c-2.63,1.72-4.88,3.39-7.3,4.72c-3.65,2-7.29,4.14-11.18,5.55c-6.44,2.33-9.84,1.17-14-4.26 c-4.17-5.44-8.17-11.02-12.26-16.53c-0.87-1.17-1.79-2.3-3.36-4.31c0,8.9,0,16.77,0,25.03c-3.44,0-6.82,0-10.52,0 c-0.36-3.2-0.7-6.28-1.11-9.93c-1.93,1.27-3.43,2.21-4.89,3.21c-6.63,4.53-13.89,7.35-21.94,7.77c-11.32,0.6-16.1-2-22.03-11.92 c-1.67,1.28-3.22,2.73-5.01,3.78c-4.59,2.69-9.06,5.78-13.98,7.65c-5.6,2.13-8.94-0.39-9.95-6.28c-0.28-1.6-0.52-3.21-0.78-4.82 c-0.4-0.26-0.8-0.52-1.21-0.78c-1.2,1.6-2.21,3.41-3.64,4.76c-2.18,2.05-4.48,4.08-7.04,5.6c-6.1,3.63-12.05,2.69-16.67-2.7 c-2.14-2.5-3.62-5.55-5.39-8.35c-3.86,2.77-7.88,5.74-11.98,8.59c-6.79,4.71-14.13,5.7-21.97,3.09c-4.44-1.47-8.92-2.83-13.33-4.4 c-2.85-1.01-5.26-0.93-8.01,0.74c-5.04,3.07-10.57,5-16.59,5.08c-0.8,0.01-1.61-0.13-2.32-0.2c-1.12-5.44,0.22-8.75,4.91-10.78 c3.03-1.31,6.36-2,9.61-2.69c1.79-0.38,3.13-0.94,3.68-2.8c1.95-6.69,3.93-13.38,5.96-20.31c-3.08-1.11-5.59-1.94-8.04-2.92 c-6.68-2.67-7.7-5.1-5.05-12.25c4.71,1.88,9.43,3.76,14.71,5.86c0.7-2.83,1.21-5.23,1.89-7.58c1.95-6.73,3.62-13.58,6.08-20.13 c1.62-4.32,4.09-8.43,6.78-12.21c1.78-2.51,4.35-4.72,7.03-6.27c9.06-5.21,18.56-1.18,21.24,8.89c2.33,8.76,1.07,17.29-2.66,25.43 c-5.98,13.05-15.86,20.01-30.87,22.11c-2.5,6.78-4.96,13.48-7.37,20.02c6.52,1.6,13.43,3.11,20.22,5.05 c4.43,1.26,8.42,0.59,11.88-2.04c4.51-3.44,8.78-7.21,12.93-11.08c1.09-1.02,1.59-2.88,1.95-4.44c1.93-8.45,5.98-15.7,12.76-21.04 c3.06-2.41,6.83-4.29,10.57-5.39c5.31-1.57,10.27-0.03,14.24,4.03c1.03,1.06,1.93,2.25,3.17,3.71c0.96-3.01,1.72-5.38,2.54-7.94 c3.65,0,7.25,0,11.26,0c-2.35,9.57-4.62,18.8-6.86,28.04c-0.79,3.25-1.61,6.5-2.15,9.79c-0.3,1.85-0.05,3.79-0.05,6.7 c2.53-1.19,4.26-1.72,5.65-2.71c2.44-1.74,4.64-3.83,7.02-5.67c2.93-2.25,4.45-5.09,5.1-8.79c1.58-8.92,6.38-16.09,13.19-21.9 c4.76-4.06,10.33-6.14,16.67-5.68c6.86,0.5,10.62,4.66,10.43,11.54c-0.16,6.06-2.63,10.92-7.91,14.66 c-2.25-1.44-4.45-2.84-6.96-4.45c1.5-2.42,2.75-4.34,3.89-6.33c1.22-2.13,2-4.53-0.02-6.44c-2.05-1.95-4.47-0.89-6.49,0.36 c-1.39,0.86-2.69,2.04-3.72,3.32c-4.79,6.01-7.92,12.76-8.49,20.54c-0.65,8.81,4.86,14.04,13.64,12.75 c8.93-1.32,16.3-5.89,22.7-11.99c1.13-1.07,1.48-3.25,1.66-4.98c1.84-18.15,6.67-35.44,14.81-51.78c1.49-2.98,3.13-5.95,5.14-8.59 c1.69-2.22,3.76-4.36,6.1-5.84c7.56-4.75,15.03-0.84,15.81,8.05c0.45,5.13-0.41,10.12-2.7,14.63 c-3.39,6.69-7.14,13.22-11.02,19.64c-2.41,4-5.43,7.63-8,11.55c-0.74,1.13-0.86,2.66-1.26,4.01c0.43,0.31,0.86,0.63,1.29,0.94 c9.75-6.58,19.49-13.16,29.54-19.94c1.91,1.97,3.73,3.84,5.93,6.11c-10.02,6.98-19.86,13.83-30.06,20.95 c3.63,4.88,7.08,9.58,10.61,14.22c1.62,2.13,3.81,2.95,6.17,1.43c5.59-3.62,11.23-7.22,16.47-11.31c1.38-1.07,1.48-3.88,2-5.94 c1.31-5.18,2.38-10.42,3.82-15.56c1.07-3.83,2.54-7.55,3.86-11.37c3.95,0,7.55,0,11.22,0c-2.45,8.74-5.08,17.19-7.13,25.78 c-1.04,4.34-1.41,8.93-1.39,13.41c0.01,4.71,2.18,5.98,6,3.4c5.52-3.73,10.72-7.98,15.81-12.3c1.21-1.03,1.64-3.18,2.08-4.9 c2.07-8.16,6.01-15.23,12.14-20.98c4.83-4.53,10.53-7.02,17.3-6.62c6.39,0.38,9.76,3.93,9.67,10.37 c-0.08,6.14-2.86,11.16-7.73,14.52c-4.92,3.39-10.32,6.13-15.7,8.76c-5.57,2.72-5.67,2.52-4.96,6.39c1.02,5.54,3.6,8.45,8.49,7.97 c4.92-0.49,9.95-1.52,14.53-3.33c8.48-3.36,15.83-8.85,22.23-15.22c5.77-5.75,10.65-12.4,15.8-18.75 c1.64-2.02,2.25-4.26,0.98-6.98c-0.72-1.56-0.59-3.61-0.51-5.42c0.23-5.27,1.52-6.41,6.75-6.36c6.14,0.06,7.47,1.68,6.23,7.69 C881.19,215.82,880.7,217.4,880.21,219.23z M600.42,250.75c0.41,1.68,0.81,4.87,1.98,7.76c1.77,4.39,5.01,5.6,8.83,2.97 c9.3-6.4,15.75-14.79,16.62-26.56c0.04-0.49,0.06-1.01-0.08-1.47c-2.6-8.78-12.13-11.35-18.72-4.97 C603.22,234.13,600.8,241.28,600.42,250.75z M551.92,225.52c1.7-0.16,2.67-0.16,3.59-0.36c14.73-3.16,21.06-23.4,18.16-33.84 c-1.12-4.01-4.61-5.18-7.75-2.43c-2.19,1.92-4.04,4.5-5.33,7.14C556.16,205.09,554.03,214.89,551.92,225.52z M715.29,227.81 c6.58-8.04,12.37-16.39,16.55-25.74c1.01-2.27,1.71-4.71,2.29-7.13c0.62-2.56,1.67-5.87-1.48-7.07c-2.85-1.08-4.36,1.97-5.53,4.08 C720.89,203.13,717.74,215.37,715.29,227.81z M808.18,241.41c6.37-2.24,11.55-4.79,15.64-9.14c2.64-2.81,3.34-6.01,1.94-7.61 c-1.42-1.63-4.68-1.32-7.77,1.01C813,229.4,809.99,234.46,808.18,241.41z"></path> <path d="M1288.51,353.77c0-18.89,0-37.4,0-56.36c10.41,0.06,20.65-1.29,30.66,0.89c16.12,3.51,21.99,17.55,20.25,30.6 c-1.92,14.48-10.11,23.04-24.66,24.69C1306.22,354.56,1297.48,353.77,1288.51,353.77z M1299.34,345.13c5.07,0,9.7,0.3,14.29-0.07 c6.46-0.52,10.72-4.38,12.86-10.33c1-2.78,1.69-5.84,1.69-8.78c0.01-9.33-3.17-17.47-13.39-19.54 c-4.91-0.99-10.19-0.17-15.45-0.17C1299.34,319.27,1299.34,331.92,1299.34,345.13z"></path> <path d="M964.34,330.32c0,8.19,0,15.79,0,23.61c-3.7,0-6.8,0-10.25,0c0-18.77,0-37.41,0-56.65c3.46,0,6.77-0.05,10.07,0.01 c6.69,0.13,13.42-0.11,20.05,0.58c9.43,0.98,14.66,7.36,14.21,16.2c-0.21,4.11-1.92,7.38-5.17,9.85c-0.89,0.68-1.85,1.28-3.19,2.2 c6.24,3.56,7.42,9.05,7.27,15.17c-0.1,4.15-0.02,8.3-0.02,12.66c-2.76,0-6.05,0-10.04,0c-0.26-3.88-0.67-7.64-0.73-11.4 c-0.16-9.75-2.37-12.05-12.22-12.23C971.18,330.27,968.04,330.32,964.34,330.32z M964.61,321.84c5.44,0,10.45,0.32,15.41-0.09 c4.81-0.39,7.16-3.41,7.13-7.98c-0.03-4.37-2.2-7.22-6.89-7.63c-5.08-0.44-10.22-0.1-15.65-0.1 C964.61,311.23,964.61,316.31,964.61,321.84z"></path> <path d="M1130.93,297.51c3.52,0,6.64,0,10.39,0c0,7.46,0,14.72,0,22.24c9.24,0,17.85,0,26.92,0c0-7.37,0-14.5,0-22.05 c3.68,0,6.92,0,10.58,0c0,18.59,0,37.22,0,56.16c-3.23,0-6.51,0-10.33,0c0-8.07,0-16.19,0-24.73c-9.12,0-17.7,0-26.86,0 c0,8.13,0,16.24,0,24.69c-3.8,0-7.05,0-10.71,0C1130.93,335.26,1130.93,316.63,1130.93,297.51z"></path> <path d="M865.23,297.28c0,7.94,0,14.95,0,22.35c8.87,0,17.47,0,26.72,0c0-7.16,0-14.4,0-21.99c3.89,0,7.14,0,10.73,0 c0,18.75,0,37.38,0,56.27c-3.43,0-6.7,0-10.52,0c0-8.24,0-16.37,0-24.85c-9.12,0-17.7,0-26.85,0c0,8.32,0,16.44,0,24.82 c-3.81,0-7.07,0-10.67,0c0-18.74,0-37.37,0-56.34c1.63-0.1,3.09-0.23,4.56-0.26C861,297.25,862.8,297.28,865.23,297.28z"></path> <path d="M1054.86,312.22c-2.85,0-5.69,0.19-8.47-0.1c-1.06-0.11-2.31-1.09-2.95-2.04c-3.56-5.29-10.39-7.43-16.17-4.82 c-2.44,1.1-4.05,2.92-4.18,5.76c-0.12,2.8,1.01,4.96,3.63,5.97c2.95,1.14,6.03,1.91,9.02,2.93c4.41,1.51,8.96,2.73,13.14,4.72 c11.46,5.46,9.8,21.82,0.18,26.58c-10.21,5.05-20.65,5.04-30.83-0.08c-4.91-2.47-7.27-6.57-8.3-12.77c3.44,0,6.83,0,10.3,0 c4.83,7.46,10.99,10.07,18.82,7.98c3.33-0.89,5.8-2.55,6.3-6.24c0.5-3.75-0.7-6.2-4.59-7.98c-2.85-1.31-6-1.98-8.98-3.02 c-4.39-1.53-8.91-2.82-13.11-4.79c-9.65-4.52-8.66-18.55-0.86-23.85c8.06-5.48,23.74-5.27,31.37,0.68 C1052.73,303.93,1054.26,306.81,1054.86,312.22z"></path> <path d="M1247.71,354.01c-4.19,0-7.68,0-11.58,0c-1.39-3.63-2.89-7.32-4.22-11.07c-0.87-2.45-2.06-3.8-5.03-3.67 c-6.17,0.27-12.36,0.08-18.98,0.08c-1.86,4.83-3.71,9.6-5.62,14.55c-3.41,0-6.69,0-10.76,0c6.95-19.04,13.78-37.76,20.66-56.62 c4.06,0,7.74-0.18,11.39,0.1c1.19,0.09,2.94,1.12,3.34,2.15C1233.85,317.42,1240.62,335.37,1247.71,354.01z M1210.19,330.79 c6.2,0,11.67,0,17.71,0c-3-8.41-5.89-16.49-9.12-25.55C1215.76,314.22,1213.08,322.18,1210.19,330.79z"></path> <path d="M1118.6,314.11c-2.26,0-4.09-0.13-5.9,0.03c-3.26,0.29-5.42-0.48-7.12-3.81c-3.75-7.34-20.1-8.32-25.22,2.26 c-4.01,8.29-4.03,16.82-0.39,25.2c2.5,5.74,7.25,8.54,13.51,8.7c6.03,0.15,10.75-2.02,13.48-7.68c0.21-0.45,0.53-0.84,0.93-1.47 c3.35,0,6.81,0,10.55,0c-0.88,5.23-3.71,9.1-7.63,12.36c-8.14,6.75-29.03,8.28-38.75-4.16c-4.2-5.37-5.9-11.57-6.04-18.2 c-0.22-9.95,2.35-18.85,10.57-25.33c8.31-6.55,23.8-7.41,32.71-1.73C1114.14,303.36,1117.39,307.64,1118.6,314.11z"></path> <path d="M935.32,297.61c0,19.01,0,37.5,0,56.28c-3.49,0-6.75,0-10.35,0c0-18.7,0-37.32,0-56.28 C928.3,297.61,931.56,297.61,935.32,297.61z"></path> <path d="M1260.32,353.88c0-18.91,0-37.42,0-56.27c3.46,0,6.71,0,10.35,0c0,18.75,0,37.36,0,56.27 C1267.31,353.88,1264.06,353.88,1260.32,353.88z"></path> <path d="M780.59,202.5c-4.61-0.01-5.99-1.66-5.23-6.25c1.05-6.36,4.88-9.7,9.98-8.68c3.18,0.64,4.22,2.04,3.9,5.27 C788.6,199.23,785.67,202.51,780.59,202.5z"></path> </g> </g> </svg> 