<?xml version="1.0" encoding="UTF-8"?> <!-- Generator: Adobe Illustrator 25.4.1, SVG Export Plug-In . SVG Version: 6.00 Build 0) --> <svg xmlns="http://www.w3.org/2000/svg" xmlns:xlink="http://www.w3.org/1999/xlink" version="1.1" id="Ebene_1" x="0px" y="0px" viewBox="0 0 500 500" style="enable-background:new 0 0 500 500;" xml:space="preserve"> <style type="text/css"> .st0{fill:none;} .st1{fill:none;stroke:#F1E896;stroke-width:6.6746;} .st2{fill:none;stroke:#F1E896;stroke-width:3.6407;} .st3{fill:none;stroke:#F1E896;stroke-width:3.6407;stroke-linecap:round;} .st4{fill:none;stroke:#F1E896;stroke-width:1.8203;stroke-linecap:round;} .st5{fill:none;stroke:#F6F2CC;stroke-width:0.6068;} </style> <g id="Gruppe_67" transform="translate(-724.172 -4797.468)"> <g id="Rechteck_32" transform="translate(1068 5167.808)"> <path class="st0" d="M-59.26-136.82h91.62c10.39,0,18.81,8.42,18.81,18.81V92.54c0,10.39-8.42,18.81-18.81,18.81h-91.62 c-10.39,0-18.81-8.42-18.81-18.81v-210.55C-78.07-128.4-69.64-136.82-59.26-136.82z"></path> <path class="st1" d="M-59.26-140.15h91.62c12.23,0,22.15,9.92,22.15,22.15V92.54c0,12.23-9.92,22.15-22.15,22.15h-91.62 c-12.23,0-22.15-9.92-22.15-22.15v-210.55C-81.4-130.24-71.49-140.15-59.26-140.15z"></path> </g> <g id="Rechteck_33" transform="translate(1158 5523.808)"> <path class="st0" d="M-103.75-276.8h0.61c5.36,0,9.71,4.35,9.71,9.71l0,0c0,5.36-4.35,9.71-9.71,9.71h-0.61 c-5.36,0-9.71-4.35-9.71-9.71l0,0C-113.46-272.46-109.11-276.8-103.75-276.8z"></path> <path class="st2" d="M-103.75-278.62h0.61c6.37,0,11.53,5.16,11.53,11.53l0,0c0,6.37-5.16,11.53-11.53,11.53h-0.61 c-6.37,0-11.53-5.16-11.53-11.53l0,0C-115.28-273.46-110.11-278.62-103.75-278.62z"></path> </g> <line id="Linie_1" class="st3" x1="1037.61" y1="5042.12" x2="1074.91" y2="5042.12"></line> </g> <path id="Pfad_311" class="st4" d="M261.5,357.61c-2.96-99.47-45.37-150.26-90.74-185.77S72.63,80.61,58.33,46.58"></path> <path id="Pfad_313" class="st4" d="M259.68,257.77c3.33-59.17,23.81-87.01,69.17-122.51S426.98,44.03,441.29,10"></path> <path id="Pfad_312" class="st5" d="M261.5,399.75c-19.25-73.47-31.61-113.24-68.39-124.11c-26.59-8.29-69.2-37.27-97.31-69.12"></path> <path id="Pfad_314" class="st5" d="M262.18,302.77c-13.34-87.51-44.43-102.27-17.5-140.01c30-40.84,3.98-58.82,6.95-96.57"></path> </svg> 