<?xml version="1.0" encoding="UTF-8"?> <!-- Generator: Adobe Illustrator 25.4.1, SVG Export Plug-In . SVG Version: 6.00 Build 0) --> <svg xmlns="http://www.w3.org/2000/svg" xmlns:xlink="http://www.w3.org/1999/xlink" version="1.1" id="Ebene_1" x="0px" y="0px" viewBox="0 0 260 500" style="enable-background:new 0 0 260 500;" xml:space="preserve"> <style type="text/css"> .st0{fill:#F1E896;} </style> <g> <g id="Gruppe_maskieren_9" transform="translate(-783.433 -2656.398)"> <g id="Gruppe_90" transform="translate(829.153 2684.219)"> <g id="Gruppe_52" transform="translate(0 0)"> <path id="Pfad_43" class="st0" d="M-26.73,405.48c0.42-4.32,1.08-8.62,1.98-12.87c2.21-8.41,4.89-16.7,7.37-25.03 c0.94-3.21,3.58-5.92,1.55-9.97c-0.74-1.48,1.48-4.31,2.03-6.59c0.8-3.02,1.32-6.1,1.56-9.22c0.07-1.25-1.28-2.59-2.25-4.35 c5.38-2.59,5.65-7.95,7.16-12.85c3.31-10.66,6.98-21.22,10.64-31.77c1.64-5.08,3.57-10.06,5.81-14.91 c4.33-8.86,9.05-17.53,13.71-26.22c1.93-3.6,4.47-6.89,6.17-10.58c3.76-8.17,1.92-14.04-5.76-18.74 c-2.78-1.51-5.65-2.87-8.58-4.06c-1.7-0.8-3.41-1.59-5.11-2.39l0.36-1.41c2.18,0.37,4.35,0.8,6.53,1.11 c3.91,0.56,7.82,1.23,11.75,1.54c3.29,0.26,5.16-1.43,5.19-5.08c-9.41,3.33-17.67-1.09-26.19-3.63c-2.47-0.58-4-3.04-3.42-5.51 c0.04-0.19,0.1-0.38,0.17-0.56c0.89-4.25,1.83-8.49,2.82-13.06c7.73-1.22,15.62-1.01,23.27,0.62c0.19,0.04,0.47,0.01,0.57,0.13 c5.11,5.82,12.44,2.05,18.48,4.22c3.61,1.3,4.23,0.19,4.88-4.99c-8.03,2.24-14.18-2.34-20.66-5.67c-0.58-0.3-1.3-1.4-1.15-1.88 c1.39-4.7,2.88-9.38,4.55-13.99c0.59-0.75,1.52-1.14,2.47-1.05c5.17,1.31,10.35,2.68,15.42,4.36c1.33,0.44,2.27,2.04,2.6,2.35 c2.88,0.28,5.73,0.74,8.55,1.38c3.53,1.06,6.68,1.7,10.06-0.75c3.13-2.25,7.21-2.71,10.76-1.21c8.39,3.03,16.86,5.82,25.31,8.66 c1.67,0.56,3.41,0.9,5.78,1.51c-3.65-12.88-12.47-18.68-23.43-20.46c-18.27-2.95-26.66-15.15-31.14-31.17 c-5.28-18.88-9.95-37.94-14.85-56.92c-1.93-7.48-3.79-14.98-5.69-22.47c-1.75-6.92-1.75-6.92-9.06-6.44 c-2.3-5.56-3.72-11.44-4.2-17.43c-0.18-1.28,1.41-3.37,2.73-4.19c3.47-2.27,7.16-4.16,11.03-5.65 c11.39-4.03,22.92-7.69,34.38-11.5c0.92-0.31,1.82-0.71,3.49-1.37L77.34-4.91c6.78-2.74,13.85-4.72,21.06-5.91 c0.4,4,0.72,7.21,1.12,11.13c6.92-1.28,13.08-2.61,19.3-3.53c9.97-1.47,19.99-2.57,29.95-4.05c2.52-0.66,5.11,0.84,5.77,3.36 c0.03,0.1,0.05,0.21,0.07,0.31c1.65,5.24,3.06,10.54,4.58,15.91c-1.18,0.73-2.4,1.39-3.66,1.99c-2.48,0.73-3.9,3.33-3.17,5.81 c0.03,0.11,0.07,0.22,0.11,0.33c3.9,19.43,8,38.82,11.39,58.33c2.21,12.67,3.72,25.49,4.86,38.3 c0.89,9.99-4.38,17.86-10.84,24.9c-4.02,4.4-8.49,8.42-12.19,13.04c-2.03,2.83-3.55,5.99-4.52,9.34 c-0.97,2.61-1.38,5.39-1.2,8.17c0.84,7.72,0.83,15.7,4.75,22.75c0.91,1.3,2.22,2.27,3.73,2.78c5.43,2.07,10.32,5.5,16.76,4.99 c3.39,0.13,6.66,1.26,9.41,3.24c1.77,1.46,2.97,3.49,3.38,5.75c0.47,2.93,0.69,5.9,0.66,8.87c0.02,2.87,1.88,5.4,4.61,6.29 c3.66,1.43,7.24,3.06,12.21,5.17c-1.98,1.41-3.04,2.77-4.27,2.93c-3.16,0.29-6.33,0.42-9.5,0.37c-3.97,0.08-6.92,1.52-7.94,5.71 c-0.23,0.76-0.52,1.5-0.87,2.21c-3.17,7.58-9.5,11.03-16.94,7.88c-3.68-1.88-6.69-4.85-8.61-8.51 c-1.76-3.56-4.87-6.27-8.64-7.51c-5.26-1.75-10.55-3.4-15.84-5.06c-2.4-0.76-4.7-1-5.7-4.3c-0.56-1.84-5.49-1.49-2.27-6.8 l-2.14,0.99c-0.53,0.79-0.91,1.67-1.14,2.59c-0.55,10.7-0.99,21.4-1.47,32.09c-0.2,4.55-0.33,9.1-0.64,13.64 c-0.76,6.09,2.23,12.04,7.57,15.05c1.33,1.12,2.54,2.37,3.61,3.74c-2.04,0.29-4.1,0.26-6.13-0.08 c-6.78-2.87-12.81-6.8-14.05-14.82c-0.91-5.85-1.37-11.8-1.73-17.72c-0.65-10.87-1.14-21.74-1.56-32.62 c-0.13-3.44-1.44-5.2-5.39-4.77c-0.52,1.36-1.18,2.78-1.6,4.26c-1.44,4.94-2.45,5.88-7.63,4.84 c-11.06-2.23-18.49,3.06-23.99,11.57c-5.02,8.14-8.44,17.15-10.08,26.57c-1.46,5.42,1.1,11.11,6.12,13.62 c5.17,2.89,10.55,5.44,15.81,8.18c1.81,0.94,3.55,2.03,5.32,3.06l-0.64,1.49c-2.71-0.74-5.45-1.37-8.12-2.24 c-11.41-3.72-12.61-3.13-17.55,7.89c-3.49,7.78-7.41,15.37-10.77,23.2c-2.02,4.7-3.22,9.74-4.97,14.56 c-0.98,2.71-2.33,5.29-3.5,7.93c-0.21,0.47-0.61,1.04-0.49,1.44c2.49,8.14-3.31,14.06-5.22,21.92l-15.65-3.79 c1.65-8.19,3.11-15.45,4.64-23.04c-2.9-1.74-4.02-1.69-5.29,1.83c-1.31,4.55-4.19,8.49-8.12,11.13 c-0.44,0.39-0.78,0.89-0.96,1.45C-6.99,366.99-13.54,380.67-14.4,396c-0.44,6.13,0,12.28,1.31,18.28 c4.2,17.48,20.32,26.91,39.58,24.05c19.97-2.96,35.78-13.37,49.59-27.39c8.96-9.31,16.45-19.93,22.21-31.5 c15.88-30.92,28.23-63.33,40.54-95.76c2.95-7.76,5.86-15.54,8.86-23.49l6.69,1.84c-0.29,1.33-0.66,2.63-1.11,3.91 c-16.39,39.11-32.54,78.31-49.33,117.25c-9.14,21.2-22.06,39.94-40.58,54.26c-13.16,10.17-27.67,16.96-44.75,16.99 c-23.83,0.04-41.6-15.86-44.19-39.6c-0.26-2.35-0.75-4.67-1.14-7L-26.73,405.48z M138.57,20.25 c5.4,35.99,13.78,70.97,17.69,106.67c8.39,0.04,9.15-0.5,9.13-8.29c0-4.36-0.36-8.71-1.07-13 c-4.23-24.74-8.61-49.46-12.97-74.18c-0.75-4.23-1.65-8.43-2.57-13.1L138.57,20.25z M78.99,142.8L51.75,41.94l-7.98,2.79 c0.56,2.73,0.92,5.05,1.51,7.31c1.75,6.69,3.58,13.36,5.41,20.03c5.66,20.79,11.22,41.61,17.08,62.35 c1.37,3.63,3.07,7.12,5.07,10.44L78.99,142.8z M161.58,232.73c-7.12-5.11-13.94-9.51-20.18-14.62 c-7.79-6.16-16.93-10.37-26.67-12.28c-1.41-0.07-2.83-0.01-4.23,0.2c1.03,0.68,2.11,1.28,3.25,1.77 c15.04,3.63,26.17,12.64,34.61,25.26c2.62,3.76,6.48,6.48,10.9,7.69L161.58,232.73z M141.97-4.74 c1.13,6.43,2.21,12.54,3.39,19.27l10.53-1.7c-0.73-4.04-1.11-7.56-2.02-10.93c-2.22-8.16-2.69-8.36-11.91-6.65L141.97-4.74z M40.77,22.39c-7.85,1.95-8.72,2.97-7.74,9.8c0.55,3.82,1.63,7.57,2.61,11.97l9.98-3.71L40.77,22.39z M24.68,310.46l1.14,0.37 c9.08-17.81,17.46-35.96,21.55-55.66c1.25-6.02,0.31-12.55-0.07-18.82c-0.49-2.22-1.32-4.36-2.46-6.33 c2.92,10.17,2.61,20.99-0.88,30.97c-3.46,10.51-7.23,20.93-11.19,31.27C30.41,298.45,27.4,304.4,24.68,310.46z"></path> </g> </g> </g> </g> </svg> 